# xmcd
#
# Track frame offsets:
#	150
#	19150
#	37705
#
# Disc length: 751 seconds
#
# Revision: 3
# Processed by: cddbd v1.5.1PL0 Copyright (c) Steve Scherf et al.
# Submitted via: EasyCDDAExtractor 8.0.2.1
#
DISCID=1502ed03
DTITLE=Dru Hill - How Deep Is Your Love [CD Single)
DYEAR=1998
DGENRE=R&B
TTITLE0=How Deep Is Your Love (feat Redman)
TTITLE1=How Deep Is Your Love (LP Version)
TTITLE2=How Deep Is Your Love (Instrumental)
EXTD=
EXTT0=
EXTT1=
EXTT2=
PLAYORDER=
